<mxfile host="Electron" modified="2024-02-09T09:59:07.332Z" agent="Mozilla/5.0 (X11; Linux x86_64) AppleWebKit/537.36 (KHTML, like Gecko) draw.io/23.0.2 Chrome/120.0.6099.109 Electron/28.1.0 Safari/537.36" etag="4B7mgi0iNV2HuX-iK0Fm" version="23.0.2" type="device">
  <diagram name="Page-1" id="AhqTYGVvuBpMjLHCGcbm">
    <mxGraphModel dx="3290" dy="1409" grid="1" gridSize="10" guides="1" tooltips="1" connect="1" arrows="1" fold="1" page="1" pageScale="1" pageWidth="850" pageHeight="1100" background="none" math="0" shadow="0">
      <root>
        <mxCell id="0" />
        <mxCell id="1" parent="0" />
        <mxCell id="b4hqpMGxGXCr9Qu-z9TG-23" value="" style="group;" vertex="1" connectable="0" parent="1">
          <mxGeometry x="190" y="50" width="460.0000000000001" height="140" as="geometry" />
        </mxCell>
        <mxCell id="b4hqpMGxGXCr9Qu-z9TG-2" value="&lt;p style=&quot;line-height: 100%;&quot;&gt;&lt;font style=&quot;font-size: 18px;&quot;&gt;Master node&lt;/font&gt;&lt;/p&gt;" style="rounded=0;whiteSpace=wrap;html=1;align=left;verticalAlign=top;spacing=0;spacingBottom=0;spacingTop=-12;spacingLeft=5;dashed=1;dashPattern=1 2;labelBackgroundColor=none;" vertex="1" parent="b4hqpMGxGXCr9Qu-z9TG-23">
          <mxGeometry width="460.0000000000001" height="140" as="geometry" />
        </mxCell>
        <mxCell id="b4hqpMGxGXCr9Qu-z9TG-6" value="TRANSSCALE" style="rounded=0;whiteSpace=wrap;html=1;" vertex="1" parent="b4hqpMGxGXCr9Qu-z9TG-23">
          <mxGeometry x="280.00418604651173" y="45.28941176470589" width="128.37209302325584" height="49.41176470588234" as="geometry" />
        </mxCell>
        <mxCell id="b4hqpMGxGXCr9Qu-z9TG-12" value="PROMETHEUS+GRAFANA" style="rounded=0;whiteSpace=wrap;html=1;" vertex="1" parent="b4hqpMGxGXCr9Qu-z9TG-23">
          <mxGeometry x="40" y="45.290000000000006" width="160" height="49.41" as="geometry" />
        </mxCell>
        <mxCell id="imQ8d0ZVWBdC2YYxe9G6-29" value="" style="group;verticalAlign=middle;dashed=1;dashPattern=12 12;fillColor=#f8cecc;strokeColor=#b85450;" parent="1" vertex="1" connectable="0">
          <mxGeometry x="-60" y="280" width="460" height="140" as="geometry" />
        </mxCell>
        <mxCell id="imQ8d0ZVWBdC2YYxe9G6-15" value="&lt;p style=&quot;line-height: 100%;&quot;&gt;&lt;font style=&quot;font-size: 18px;&quot;&gt;Producer nodes&lt;/font&gt;&lt;/p&gt;" style="rounded=0;whiteSpace=wrap;html=1;align=left;verticalAlign=top;spacing=0;spacingBottom=0;spacingTop=-12;spacingLeft=5;dashed=1;dashPattern=1 2;" parent="imQ8d0ZVWBdC2YYxe9G6-29" vertex="1">
          <mxGeometry width="460.0000000000001" height="140" as="geometry" />
        </mxCell>
        <mxCell id="imQ8d0ZVWBdC2YYxe9G6-5" value="" style="group" parent="imQ8d0ZVWBdC2YYxe9G6-29" vertex="1" connectable="0">
          <mxGeometry x="256.74418604651174" y="39.529411764705884" width="149.76744186046514" height="65.88235294117646" as="geometry" />
        </mxCell>
        <mxCell id="imQ8d0ZVWBdC2YYxe9G6-4" value="" style="rounded=0;whiteSpace=wrap;html=1;" parent="imQ8d0ZVWBdC2YYxe9G6-5" vertex="1">
          <mxGeometry x="21.395348837209305" y="16.470588235294116" width="128.37209302325584" height="49.41176470588234" as="geometry" />
        </mxCell>
        <mxCell id="imQ8d0ZVWBdC2YYxe9G6-3" value="" style="rounded=0;whiteSpace=wrap;html=1;" parent="imQ8d0ZVWBdC2YYxe9G6-5" vertex="1">
          <mxGeometry x="10.697674418604652" y="8.235294117647058" width="128.37209302325584" height="49.41176470588234" as="geometry" />
        </mxCell>
        <mxCell id="imQ8d0ZVWBdC2YYxe9G6-1" value="KAFKA" style="rounded=0;whiteSpace=wrap;html=1;" parent="imQ8d0ZVWBdC2YYxe9G6-5" vertex="1">
          <mxGeometry width="128.37209302325584" height="49.41176470588234" as="geometry" />
        </mxCell>
        <mxCell id="imQ8d0ZVWBdC2YYxe9G6-6" value="" style="group" parent="imQ8d0ZVWBdC2YYxe9G6-29" vertex="1" connectable="0">
          <mxGeometry x="42.79069767441862" y="31.29411764705882" width="149.76744186046514" height="65.88235294117646" as="geometry" />
        </mxCell>
        <mxCell id="imQ8d0ZVWBdC2YYxe9G6-7" value="" style="rounded=0;whiteSpace=wrap;html=1;" parent="imQ8d0ZVWBdC2YYxe9G6-6" vertex="1">
          <mxGeometry x="21.395348837209305" y="16.470588235294116" width="128.37209302325584" height="49.41176470588234" as="geometry" />
        </mxCell>
        <mxCell id="imQ8d0ZVWBdC2YYxe9G6-8" value="" style="rounded=0;whiteSpace=wrap;html=1;" parent="imQ8d0ZVWBdC2YYxe9G6-6" vertex="1">
          <mxGeometry x="10.697674418604652" y="8.235294117647058" width="128.37209302325584" height="49.41176470588234" as="geometry" />
        </mxCell>
        <mxCell id="imQ8d0ZVWBdC2YYxe9G6-9" value="LOAD GENERATORS" style="rounded=0;whiteSpace=wrap;html=1;" parent="imQ8d0ZVWBdC2YYxe9G6-6" vertex="1">
          <mxGeometry width="128.37209302325584" height="49.41176470588234" as="geometry" />
        </mxCell>
        <mxCell id="imQ8d0ZVWBdC2YYxe9G6-28" style="edgeStyle=orthogonalEdgeStyle;rounded=0;orthogonalLoop=1;jettySize=auto;html=1;entryX=0;entryY=0.5;entryDx=0;entryDy=0;" parent="imQ8d0ZVWBdC2YYxe9G6-29" source="imQ8d0ZVWBdC2YYxe9G6-8" target="imQ8d0ZVWBdC2YYxe9G6-1" edge="1">
          <mxGeometry relative="1" as="geometry" />
        </mxCell>
        <mxCell id="imQ8d0ZVWBdC2YYxe9G6-22" value="" style="group;fillColor=#ffe6cc;strokeColor=#d79b00;" parent="1" vertex="1" connectable="0">
          <mxGeometry x="450" y="280" width="460" height="280" as="geometry" />
        </mxCell>
        <mxCell id="imQ8d0ZVWBdC2YYxe9G6-16" value="&lt;font style=&quot;font-size: 18px;&quot;&gt;Consumer nodes&lt;/font&gt;" style="rounded=0;whiteSpace=wrap;html=1;verticalAlign=top;align=right;spacingLeft=0;spacing=0;spacingRight=6;dashed=1;dashPattern=1 1;" parent="imQ8d0ZVWBdC2YYxe9G6-22" vertex="1">
          <mxGeometry width="459.99999999999994" height="280" as="geometry" />
        </mxCell>
        <mxCell id="imQ8d0ZVWBdC2YYxe9G6-10" value="" style="group" parent="imQ8d0ZVWBdC2YYxe9G6-22" vertex="1" connectable="0">
          <mxGeometry x="139.06976744186045" y="41" width="149.7674418604651" height="80" as="geometry" />
        </mxCell>
        <mxCell id="imQ8d0ZVWBdC2YYxe9G6-11" value="" style="rounded=0;whiteSpace=wrap;html=1;" parent="imQ8d0ZVWBdC2YYxe9G6-10" vertex="1">
          <mxGeometry x="21.3953488372093" y="20" width="128.37209302325581" height="60" as="geometry" />
        </mxCell>
        <mxCell id="imQ8d0ZVWBdC2YYxe9G6-12" value="" style="rounded=0;whiteSpace=wrap;html=1;" parent="imQ8d0ZVWBdC2YYxe9G6-10" vertex="1">
          <mxGeometry x="10.69767441860465" y="10" width="128.37209302325581" height="60" as="geometry" />
        </mxCell>
        <mxCell id="imQ8d0ZVWBdC2YYxe9G6-13" value="FLINK" style="rounded=0;whiteSpace=wrap;html=1;" parent="imQ8d0ZVWBdC2YYxe9G6-10" vertex="1">
          <mxGeometry width="128.37209302325581" height="60" as="geometry" />
        </mxCell>
        <mxCell id="imQ8d0ZVWBdC2YYxe9G6-17" value="" style="group" parent="imQ8d0ZVWBdC2YYxe9G6-22" vertex="1" connectable="0">
          <mxGeometry x="288.83720930232556" y="180" width="149.7674418604651" height="80" as="geometry" />
        </mxCell>
        <mxCell id="imQ8d0ZVWBdC2YYxe9G6-18" value="" style="rounded=0;whiteSpace=wrap;html=1;" parent="imQ8d0ZVWBdC2YYxe9G6-17" vertex="1">
          <mxGeometry x="21.3953488372093" y="20" width="128.37209302325581" height="60" as="geometry" />
        </mxCell>
        <mxCell id="imQ8d0ZVWBdC2YYxe9G6-19" value="" style="rounded=0;whiteSpace=wrap;html=1;" parent="imQ8d0ZVWBdC2YYxe9G6-17" vertex="1">
          <mxGeometry x="10.69767441860465" y="10" width="128.37209302325581" height="60" as="geometry" />
        </mxCell>
        <mxCell id="imQ8d0ZVWBdC2YYxe9G6-20" value="MINIO" style="rounded=0;whiteSpace=wrap;html=1;" parent="imQ8d0ZVWBdC2YYxe9G6-17" vertex="1">
          <mxGeometry width="128.37209302325581" height="60" as="geometry" />
        </mxCell>
        <mxCell id="imQ8d0ZVWBdC2YYxe9G6-23" value="" style="group" parent="imQ8d0ZVWBdC2YYxe9G6-22" vertex="1" connectable="0">
          <mxGeometry x="32.093023255813954" y="140" width="149.7674418604651" height="80" as="geometry" />
        </mxCell>
        <mxCell id="imQ8d0ZVWBdC2YYxe9G6-24" value="" style="rounded=0;whiteSpace=wrap;html=1;" parent="imQ8d0ZVWBdC2YYxe9G6-23" vertex="1">
          <mxGeometry x="21.3953488372093" y="20" width="128.37209302325581" height="60" as="geometry" />
        </mxCell>
        <mxCell id="imQ8d0ZVWBdC2YYxe9G6-25" value="" style="rounded=0;whiteSpace=wrap;html=1;" parent="imQ8d0ZVWBdC2YYxe9G6-23" vertex="1">
          <mxGeometry x="10.69767441860465" y="10" width="128.37209302325581" height="60" as="geometry" />
        </mxCell>
        <mxCell id="imQ8d0ZVWBdC2YYxe9G6-26" value="CHAOS" style="rounded=0;whiteSpace=wrap;html=1;" parent="imQ8d0ZVWBdC2YYxe9G6-23" vertex="1">
          <mxGeometry width="128.37209302325581" height="60" as="geometry" />
        </mxCell>
        <mxCell id="soQw_uOvo3KiBFd2rG0V-38" style="edgeStyle=orthogonalEdgeStyle;rounded=0;orthogonalLoop=1;jettySize=auto;html=1;exitX=1;exitY=0.5;exitDx=0;exitDy=0;entryX=0.5;entryY=1;entryDx=0;entryDy=0;curved=1;dashed=1;dashPattern=1 1;" parent="imQ8d0ZVWBdC2YYxe9G6-22" source="imQ8d0ZVWBdC2YYxe9G6-25" target="imQ8d0ZVWBdC2YYxe9G6-13" edge="1">
          <mxGeometry relative="1" as="geometry" />
        </mxCell>
        <mxCell id="soQw_uOvo3KiBFd2rG0V-39" style="edgeStyle=orthogonalEdgeStyle;rounded=0;orthogonalLoop=1;jettySize=auto;html=1;exitX=1;exitY=0.5;exitDx=0;exitDy=0;entryX=0.5;entryY=0;entryDx=0;entryDy=0;endArrow=none;endFill=0;shape=link;" parent="imQ8d0ZVWBdC2YYxe9G6-22" source="imQ8d0ZVWBdC2YYxe9G6-12" target="imQ8d0ZVWBdC2YYxe9G6-20" edge="1">
          <mxGeometry relative="1" as="geometry" />
        </mxCell>
        <mxCell id="imQ8d0ZVWBdC2YYxe9G6-27" style="edgeStyle=orthogonalEdgeStyle;rounded=0;orthogonalLoop=1;jettySize=auto;html=1;strokeWidth=3;exitX=1;exitY=0.5;exitDx=0;exitDy=0;" parent="1" source="imQ8d0ZVWBdC2YYxe9G6-3" target="imQ8d0ZVWBdC2YYxe9G6-13" edge="1">
          <mxGeometry relative="1" as="geometry">
            <mxPoint x="320" y="400" as="sourcePoint" />
            <mxPoint x="590" y="360" as="targetPoint" />
            <Array as="points">
              <mxPoint x="336" y="351" />
            </Array>
          </mxGeometry>
        </mxCell>
        <mxCell id="soQw_uOvo3KiBFd2rG0V-2" style="edgeStyle=orthogonalEdgeStyle;rounded=0;orthogonalLoop=1;jettySize=auto;html=1;exitX=0.5;exitY=1;exitDx=0;exitDy=0;entryX=0.5;entryY=0;entryDx=0;entryDy=0;dashed=1;endArrow=none;endFill=0;strokeWidth=3;" parent="1" source="imQ8d0ZVWBdC2YYxe9G6-8" target="soQw_uOvo3KiBFd2rG0V-3" edge="1">
          <mxGeometry relative="1" as="geometry">
            <mxPoint x="70" y="590" as="targetPoint" />
            <Array as="points">
              <mxPoint x="58" y="460" />
            </Array>
          </mxGeometry>
        </mxCell>
        <mxCell id="soQw_uOvo3KiBFd2rG0V-3" value="Params Load Generators" style="swimlane;fontStyle=0;childLayout=stackLayout;horizontal=1;startSize=30;horizontalStack=0;resizeParent=1;resizeParentMax=0;resizeLast=0;collapsible=1;marginBottom=0;whiteSpace=wrap;html=1;" parent="1" vertex="1">
          <mxGeometry x="-60" y="460" width="200" height="110" as="geometry" />
        </mxCell>
        <mxCell id="soQw_uOvo3KiBFd2rG0V-4" value="&lt;b&gt;NUM_SENSORS&lt;/b&gt;: &lt;i&gt;100k-2.5M&lt;/i&gt;&amp;nbsp;" style="text;strokeColor=none;fillColor=none;align=left;verticalAlign=middle;spacingLeft=4;spacingRight=4;overflow=hidden;points=[[0,0.5],[1,0.5]];portConstraint=eastwest;rotatable=0;whiteSpace=wrap;html=1;" parent="soQw_uOvo3KiBFd2rG0V-3" vertex="1">
          <mxGeometry y="30" width="200" height="20" as="geometry" />
        </mxCell>
        <mxCell id="soQw_uOvo3KiBFd2rG0V-5" value="&lt;b&gt;INTERVAL_MS&lt;/b&gt;:&amp;nbsp;&lt;i&gt;1000&lt;/i&gt;" style="text;strokeColor=none;fillColor=none;align=left;verticalAlign=middle;spacingLeft=4;spacingRight=4;overflow=hidden;points=[[0,0.5],[1,0.5]];portConstraint=eastwest;rotatable=0;whiteSpace=wrap;html=1;" parent="soQw_uOvo3KiBFd2rG0V-3" vertex="1">
          <mxGeometry y="50" width="200" height="20" as="geometry" />
        </mxCell>
        <mxCell id="soQw_uOvo3KiBFd2rG0V-6" value="&lt;b&gt;REPLICAS&lt;/b&gt;:&amp;nbsp;&lt;i&gt;1 per ca.&amp;nbsp;&lt;/i&gt;&lt;i&gt;10k sensors&lt;/i&gt;" style="text;strokeColor=none;fillColor=none;align=left;verticalAlign=middle;spacingLeft=4;spacingRight=4;overflow=hidden;points=[[0,0.5],[1,0.5]];portConstraint=eastwest;rotatable=0;whiteSpace=wrap;html=1;" parent="soQw_uOvo3KiBFd2rG0V-3" vertex="1">
          <mxGeometry y="70" width="200" height="20" as="geometry" />
        </mxCell>
        <mxCell id="soQw_uOvo3KiBFd2rG0V-7" value="&lt;b&gt;TOPIC&lt;/b&gt;: &lt;i&gt;input-topic1 / input-topic2&lt;/i&gt;" style="text;strokeColor=none;fillColor=none;align=left;verticalAlign=middle;spacingLeft=4;spacingRight=4;overflow=hidden;points=[[0,0.5],[1,0.5]];portConstraint=eastwest;rotatable=0;whiteSpace=wrap;html=1;" parent="soQw_uOvo3KiBFd2rG0V-3" vertex="1">
          <mxGeometry y="90" width="200" height="20" as="geometry" />
        </mxCell>
        <mxCell id="soQw_uOvo3KiBFd2rG0V-13" style="edgeStyle=orthogonalEdgeStyle;rounded=0;orthogonalLoop=1;jettySize=auto;html=1;entryX=0.5;entryY=1;entryDx=0;entryDy=0;dashed=1;endArrow=none;endFill=0;strokeWidth=3;" parent="1" source="soQw_uOvo3KiBFd2rG0V-8" target="imQ8d0ZVWBdC2YYxe9G6-3" edge="1">
          <mxGeometry relative="1" as="geometry">
            <Array as="points">
              <mxPoint x="220" y="570" />
              <mxPoint x="272" y="570" />
            </Array>
          </mxGeometry>
        </mxCell>
        <mxCell id="soQw_uOvo3KiBFd2rG0V-8" value="Params Kafka" style="swimlane;fontStyle=0;childLayout=stackLayout;horizontal=1;startSize=30;horizontalStack=0;resizeParent=1;resizeParentMax=0;resizeLast=0;collapsible=1;marginBottom=0;whiteSpace=wrap;html=1;" parent="1" vertex="1">
          <mxGeometry x="-60" y="660" width="350" height="180" as="geometry" />
        </mxCell>
        <mxCell id="soQw_uOvo3KiBFd2rG0V-9" value="&lt;b&gt;KAFKA_CREATE_TOPICS&lt;/b&gt;: &lt;i&gt;input-topic1:10000:5,input-topic2:10000:5&lt;br&gt;(10000 partitions, 5 replicas)&lt;br&gt;&lt;br&gt;&lt;/i&gt;" style="text;strokeColor=none;fillColor=none;align=left;verticalAlign=middle;spacingLeft=4;spacingRight=4;overflow=hidden;points=[[0,0.5],[1,0.5]];portConstraint=eastwest;rotatable=0;whiteSpace=wrap;html=1;" parent="soQw_uOvo3KiBFd2rG0V-8" vertex="1">
          <mxGeometry y="30" width="350" height="50" as="geometry" />
        </mxCell>
        <mxCell id="soQw_uOvo3KiBFd2rG0V-10" value="&lt;b&gt;KAFKA_LOG_RETENTION_BYTES&lt;/b&gt;:&amp;nbsp;&lt;i&gt;1073741824&lt;/i&gt;" style="text;strokeColor=none;fillColor=none;align=left;verticalAlign=middle;spacingLeft=4;spacingRight=4;overflow=hidden;points=[[0,0.5],[1,0.5]];portConstraint=eastwest;rotatable=0;whiteSpace=wrap;html=1;" parent="soQw_uOvo3KiBFd2rG0V-8" vertex="1">
          <mxGeometry y="80" width="350" height="20" as="geometry" />
        </mxCell>
        <mxCell id="soQw_uOvo3KiBFd2rG0V-15" value="&lt;b&gt;KAFKA_LOG_SEGMENT_BYTES&lt;/b&gt;:&amp;nbsp;&lt;i&gt;536870912&lt;/i&gt;" style="text;strokeColor=none;fillColor=none;align=left;verticalAlign=middle;spacingLeft=4;spacingRight=4;overflow=hidden;points=[[0,0.5],[1,0.5]];portConstraint=eastwest;rotatable=0;whiteSpace=wrap;html=1;" parent="soQw_uOvo3KiBFd2rG0V-8" vertex="1">
          <mxGeometry y="100" width="350" height="20" as="geometry" />
        </mxCell>
        <mxCell id="soQw_uOvo3KiBFd2rG0V-11" value="&lt;b&gt;KAFKA_LOG_RETENTION_MS&lt;/b&gt;:&amp;nbsp;&lt;i&gt;10000&lt;/i&gt;" style="text;strokeColor=none;fillColor=none;align=left;verticalAlign=middle;spacingLeft=4;spacingRight=4;overflow=hidden;points=[[0,0.5],[1,0.5]];portConstraint=eastwest;rotatable=0;whiteSpace=wrap;html=1;" parent="soQw_uOvo3KiBFd2rG0V-8" vertex="1">
          <mxGeometry y="120" width="350" height="20" as="geometry" />
        </mxCell>
        <mxCell id="soQw_uOvo3KiBFd2rG0V-12" value="&lt;b&gt;KAFKA_LOG_RETENTION_CHECK_INTERVAL_MS&lt;/b&gt;:&amp;nbsp;&lt;i&gt;5000&lt;/i&gt;" style="text;strokeColor=none;fillColor=none;align=left;verticalAlign=middle;spacingLeft=4;spacingRight=4;overflow=hidden;points=[[0,0.5],[1,0.5]];portConstraint=eastwest;rotatable=0;whiteSpace=wrap;html=1;" parent="soQw_uOvo3KiBFd2rG0V-8" vertex="1">
          <mxGeometry y="140" width="350" height="20" as="geometry" />
        </mxCell>
        <mxCell id="soQw_uOvo3KiBFd2rG0V-14" value="&lt;b&gt;KAFKA_LOG_CLEANUP_POLICY&lt;/b&gt;:&amp;nbsp;&lt;i&gt;delete&lt;/i&gt;" style="text;strokeColor=none;fillColor=none;align=left;verticalAlign=middle;spacingLeft=4;spacingRight=4;overflow=hidden;points=[[0,0.5],[1,0.5]];portConstraint=eastwest;rotatable=0;whiteSpace=wrap;html=1;" parent="soQw_uOvo3KiBFd2rG0V-8" vertex="1">
          <mxGeometry y="160" width="350" height="20" as="geometry" />
        </mxCell>
        <mxCell id="soQw_uOvo3KiBFd2rG0V-23" style="edgeStyle=orthogonalEdgeStyle;rounded=0;orthogonalLoop=1;jettySize=auto;html=1;entryX=1;entryY=0;entryDx=0;entryDy=0;dashed=1;endArrow=none;endFill=0;strokeWidth=3;exitX=0;exitY=0.5;exitDx=0;exitDy=0;" parent="1" target="imQ8d0ZVWBdC2YYxe9G6-13" edge="1">
          <mxGeometry relative="1" as="geometry">
            <Array as="points">
              <mxPoint x="950" y="585" />
              <mxPoint x="930" y="585" />
              <mxPoint x="930" y="320" />
            </Array>
            <mxPoint x="950" y="595" as="sourcePoint" />
          </mxGeometry>
        </mxCell>
        <mxCell id="soQw_uOvo3KiBFd2rG0V-16" value="Params Flink" style="swimlane;fontStyle=0;childLayout=stackLayout;horizontal=1;startSize=30;horizontalStack=0;resizeParent=1;resizeParentMax=0;resizeLast=0;collapsible=1;marginBottom=0;whiteSpace=wrap;html=1;" parent="1" vertex="1">
          <mxGeometry x="950" y="280" width="550" height="560" as="geometry" />
        </mxCell>
        <mxCell id="soQw_uOvo3KiBFd2rG0V-18" value="&lt;b&gt;CHECKPOINTING_INTERVAL_MS&lt;/b&gt;:&amp;nbsp;&lt;i&gt;4000&lt;/i&gt;" style="text;strokeColor=none;fillColor=none;align=left;verticalAlign=middle;spacingLeft=4;spacingRight=4;overflow=hidden;points=[[0,0.5],[1,0.5]];portConstraint=eastwest;rotatable=0;whiteSpace=wrap;html=1;" parent="soQw_uOvo3KiBFd2rG0V-16" vertex="1">
          <mxGeometry y="30" width="550" height="20" as="geometry" />
        </mxCell>
        <mxCell id="soQw_uOvo3KiBFd2rG0V-19" value="&lt;b&gt;JOB_WINDOW_SIZE&lt;/b&gt;:&amp;nbsp;&lt;i&gt;1000&lt;/i&gt;" style="text;strokeColor=none;fillColor=none;align=left;verticalAlign=middle;spacingLeft=4;spacingRight=4;overflow=hidden;points=[[0,0.5],[1,0.5]];portConstraint=eastwest;rotatable=0;whiteSpace=wrap;html=1;" parent="soQw_uOvo3KiBFd2rG0V-16" vertex="1">
          <mxGeometry y="50" width="550" height="20" as="geometry" />
        </mxCell>
        <mxCell id="soQw_uOvo3KiBFd2rG0V-20" value="&lt;b&gt;FIBONACCI_VALUE&lt;/b&gt;:&amp;nbsp;&lt;i&gt;18 (To make operator busier)&lt;br&gt;&lt;/i&gt;" style="text;strokeColor=none;fillColor=none;align=left;verticalAlign=middle;spacingLeft=4;spacingRight=4;overflow=hidden;points=[[0,0.5],[1,0.5]];portConstraint=eastwest;rotatable=0;whiteSpace=wrap;html=1;" parent="soQw_uOvo3KiBFd2rG0V-16" vertex="1">
          <mxGeometry y="70" width="550" height="20" as="geometry" />
        </mxCell>
        <mxCell id="b4hqpMGxGXCr9Qu-z9TG-25" value="&lt;b&gt;GLOBAL_STATIC_CONFIG&lt;/b&gt;&lt;span style=&quot;font-size: 13px;&quot;&gt;&lt;i&gt;:&lt;/i&gt;&lt;br&gt;&lt;div style=&quot;&quot;&gt;jobmanager.rpc.address: flink-jobmanager&lt;/div&gt;&lt;div style=&quot;&quot;&gt;taskmanager.numberOfTaskSlots: 1&lt;/div&gt;&lt;div style=&quot;&quot;&gt;taskmanager.memory.process.size: 4Gb&lt;/div&gt;&lt;div style=&quot;&quot;&gt;taskmanager.memory.managed.fraction: 0.2&lt;/div&gt;&lt;div style=&quot;&quot;&gt;taskmanager.memory.task.off-heap.size: 2048mb&lt;/div&gt;&lt;div style=&quot;&quot;&gt;taskmanager.network.memory.buffer-debloat.enabled: true&lt;/div&gt;&lt;div style=&quot;&quot;&gt;taskmanager.network.detailed-metrics: true&lt;/div&gt;&lt;div style=&quot;&quot;&gt;&lt;br&gt;&lt;/div&gt;&lt;div style=&quot;&quot;&gt;metrics.reporter.prom.factory.class:&amp;nbsp;&lt;/div&gt;&lt;div style=&quot;&quot;&gt;org.apache.flink.metrics.prometheus.PrometheusReporterFactory&lt;/div&gt;&lt;div style=&quot;&quot;&gt;metrics.reporter.prom.interval: 5 SECONDS&lt;/div&gt;&lt;div style=&quot;&quot;&gt;&lt;br&gt;&lt;/div&gt;&lt;div style=&quot;&quot;&gt;state.backend.latency-track.keyed-state-enabled: true&lt;/div&gt;&lt;div style=&quot;&quot;&gt;state.backend.type: rocksdb&lt;/div&gt;&lt;div style=&quot;&quot;&gt;state.backend.rocksdb.memory.managed: true&lt;/div&gt;&lt;div style=&quot;&quot;&gt;state.backend.rocksdb.async-threads: 4&lt;/div&gt;&lt;div style=&quot;&quot;&gt;state.backend.rocksdb.localdir: /mnt/data/tmp&lt;/div&gt;&lt;div style=&quot;&quot;&gt;state.checkpoint-storage: filesystem&lt;/div&gt;&lt;div style=&quot;&quot;&gt;state.checkpoints.dir: s3://flink-bucket/checkpoints&lt;/div&gt;&lt;div style=&quot;&quot;&gt;state.savepoints.dir: s3://flink-bucket/savepoints&lt;/div&gt;&lt;div style=&quot;&quot;&gt;&lt;br&gt;&lt;/div&gt;&lt;div style=&quot;&quot;&gt;s3.path.style.access: true&lt;/div&gt;&lt;div style=&quot;&quot;&gt;s3.endpoint: http://minio.minio-operator.svc.cluster.local&lt;/div&gt;&lt;div style=&quot;&quot;&gt;&lt;br&gt;&lt;/div&gt;&lt;div style=&quot;&quot;&gt;execution.checkpointing.mode: EXACTLY_ONCE&lt;/div&gt;&lt;div style=&quot;&quot;&gt;execution.checkpointing.unaligned.enabled: true&lt;/div&gt;&lt;div style=&quot;&quot;&gt;execution.checkpointing.aligned-checkpoint-timeout: 10 s&lt;/div&gt;&lt;div style=&quot;&quot;&gt;execution.checkpointing.checkpoints-after-tasks-finish.enabled: true&lt;/div&gt;&lt;/span&gt;" style="text;strokeColor=none;fillColor=none;align=left;verticalAlign=middle;spacingLeft=4;spacingRight=4;overflow=hidden;points=[[0,0.5],[1,0.5]];portConstraint=eastwest;rotatable=0;whiteSpace=wrap;html=1;" vertex="1" parent="soQw_uOvo3KiBFd2rG0V-16">
          <mxGeometry y="90" width="550" height="470" as="geometry" />
        </mxCell>
        <mxCell id="soQw_uOvo3KiBFd2rG0V-24" value="Params Chaos" style="swimlane;fontStyle=0;childLayout=stackLayout;horizontal=1;startSize=30;horizontalStack=0;resizeParent=1;resizeParentMax=0;resizeLast=0;collapsible=1;marginBottom=0;whiteSpace=wrap;html=1;" parent="1" vertex="1">
          <mxGeometry x="320" y="600" width="285" height="240" as="geometry" />
        </mxCell>
        <mxCell id="soQw_uOvo3KiBFd2rG0V-25" value="&lt;i&gt;Chaos enabled only on Flink pods with chaos-mesh&lt;br&gt;&lt;/i&gt;" style="text;strokeColor=none;fillColor=none;align=left;verticalAlign=middle;spacingLeft=4;spacingRight=4;overflow=hidden;points=[[0,0.5],[1,0.5]];portConstraint=eastwest;rotatable=0;whiteSpace=wrap;html=1;" parent="soQw_uOvo3KiBFd2rG0V-24" vertex="1">
          <mxGeometry y="30" width="285" height="20" as="geometry" />
        </mxCell>
        <mxCell id="soQw_uOvo3KiBFd2rG0V-26" value="&lt;b&gt;MODE&lt;/b&gt;: fixed-percent&lt;br&gt;&lt;b&gt;VALUE&lt;/b&gt;: 67 (67% of affected nodes)" style="text;strokeColor=none;fillColor=none;align=left;verticalAlign=middle;spacingLeft=4;spacingRight=4;overflow=hidden;points=[[0,0.5],[1,0.5]];portConstraint=eastwest;rotatable=0;whiteSpace=wrap;html=1;" parent="soQw_uOvo3KiBFd2rG0V-24" vertex="1">
          <mxGeometry y="50" width="285" height="30" as="geometry" />
        </mxCell>
        <mxCell id="soQw_uOvo3KiBFd2rG0V-27" value="&lt;b&gt;DELAY&lt;/b&gt;:&amp;nbsp;&lt;br&gt;&lt;ul style=&quot;line-height: 80%; font-size: 14px;&quot;&gt;&lt;li&gt;&lt;i&gt;latency_ms: 25&lt;/i&gt;&lt;/li&gt;&lt;li&gt;&lt;i&gt;jitter_ms: 10&lt;/i&gt;&lt;/li&gt;&lt;li&gt;&lt;i&gt;correlation: 0&lt;/i&gt;&lt;/li&gt;&lt;/ul&gt;" style="text;strokeColor=none;fillColor=none;align=left;verticalAlign=middle;spacingLeft=4;spacingRight=4;overflow=hidden;points=[[0,0.5],[1,0.5]];portConstraint=eastwest;rotatable=0;whiteSpace=wrap;html=1;" parent="soQw_uOvo3KiBFd2rG0V-24" vertex="1">
          <mxGeometry y="80" width="285" height="70" as="geometry" />
        </mxCell>
        <mxCell id="soQw_uOvo3KiBFd2rG0V-40" value="&lt;b&gt;BANDWIDTH&lt;/b&gt;:&amp;nbsp;&lt;br&gt;&lt;ul style=&quot;line-height: 80%; font-size: 14px;&quot;&gt;&lt;li&gt;&lt;i&gt;rate_mbps: 100&lt;/i&gt;&lt;/li&gt;&lt;li&gt;&lt;i&gt;limit: 10000&lt;/i&gt;&lt;/li&gt;&lt;li&gt;&lt;i&gt;buffer: 10000&lt;/i&gt;&lt;/li&gt;&lt;/ul&gt;" style="text;strokeColor=none;fillColor=none;align=left;verticalAlign=middle;spacingLeft=4;spacingRight=4;overflow=hidden;points=[[0,0.5],[1,0.5]];portConstraint=eastwest;rotatable=0;whiteSpace=wrap;html=1;" parent="soQw_uOvo3KiBFd2rG0V-24" vertex="1">
          <mxGeometry y="150" width="285" height="90" as="geometry" />
        </mxCell>
        <mxCell id="soQw_uOvo3KiBFd2rG0V-36" style="edgeStyle=orthogonalEdgeStyle;rounded=0;orthogonalLoop=1;jettySize=auto;html=1;exitX=0.5;exitY=1;exitDx=0;exitDy=0;entryX=0.5;entryY=0;entryDx=0;entryDy=0;endArrow=none;endFill=0;dashed=1;strokeWidth=3;" parent="1" source="imQ8d0ZVWBdC2YYxe9G6-24" target="soQw_uOvo3KiBFd2rG0V-24" edge="1">
          <mxGeometry relative="1" as="geometry">
            <mxPoint x="585.8999999999996" y="220.57999999999993" as="targetPoint" />
            <Array as="points">
              <mxPoint x="568" y="570" />
              <mxPoint x="462" y="570" />
            </Array>
          </mxGeometry>
        </mxCell>
        <mxCell id="soQw_uOvo3KiBFd2rG0V-47" style="edgeStyle=orthogonalEdgeStyle;rounded=0;orthogonalLoop=1;jettySize=auto;html=1;entryX=0.5;entryY=1;entryDx=0;entryDy=0;strokeWidth=3;dashed=1;endArrow=none;endFill=0;" parent="1" source="soQw_uOvo3KiBFd2rG0V-42" target="imQ8d0ZVWBdC2YYxe9G6-18" edge="1">
          <mxGeometry relative="1" as="geometry">
            <Array as="points">
              <mxPoint x="782" y="570" />
              <mxPoint x="824" y="570" />
            </Array>
          </mxGeometry>
        </mxCell>
        <mxCell id="soQw_uOvo3KiBFd2rG0V-42" value="Params Minio Tenants" style="swimlane;fontStyle=0;childLayout=stackLayout;horizontal=1;startSize=30;horizontalStack=0;resizeParent=1;resizeParentMax=0;resizeLast=0;collapsible=1;marginBottom=0;whiteSpace=wrap;html=1;" parent="1" vertex="1">
          <mxGeometry x="640" y="630" width="285" height="210" as="geometry" />
        </mxCell>
        <mxCell id="soQw_uOvo3KiBFd2rG0V-45" value="&lt;p&gt;&lt;b&gt;POOLS&lt;/b&gt;:&lt;br&gt;&lt;span style=&quot;white-space: pre;&quot;&gt;&#x9;&lt;/span&gt;&lt;b&gt;servers&lt;/b&gt;: &lt;i&gt;len(consumer_nodes)&lt;/i&gt;&lt;br&gt;&lt;span style=&quot;white-space: pre;&quot;&gt;&#x9;&lt;/span&gt;&lt;b&gt;volumesPerServer&lt;/b&gt;: &lt;i&gt;1&lt;/i&gt;&lt;br&gt;&lt;span style=&quot;white-space: pre;&quot;&gt;&#x9;&lt;/span&gt;&lt;b&gt;size&lt;/b&gt;: &lt;i&gt;50Gi&lt;/i&gt;&lt;br&gt;&lt;span style=&quot;white-space: pre;&quot;&gt;&#x9;&lt;/span&gt;&lt;b&gt;storageClass&lt;/b&gt;: &lt;i&gt;local-path-provisioner&amp;nbsp;&lt;br&gt;&lt;span style=&quot;white-space: pre;&quot;&gt;&#x9;&lt;/span&gt;(On dedicated /tmp storage of each node)&lt;/i&gt;&lt;br&gt;&lt;/p&gt;&lt;p&gt;&lt;b&gt;BUCKETS:&lt;br&gt;&lt;span style=&quot;white-space: pre;&quot;&gt;&#x9;&lt;/span&gt;name: &lt;/b&gt;&lt;i&gt;flink-bucket&lt;/i&gt;&lt;br&gt;&lt;/p&gt;" style="text;strokeColor=none;fillColor=none;align=left;verticalAlign=middle;spacingLeft=4;spacingRight=4;overflow=hidden;points=[[0,0.5],[1,0.5]];portConstraint=eastwest;rotatable=0;whiteSpace=wrap;html=1;" parent="soQw_uOvo3KiBFd2rG0V-42" vertex="1">
          <mxGeometry y="30" width="285" height="180" as="geometry" />
        </mxCell>
        <mxCell id="b4hqpMGxGXCr9Qu-z9TG-18" style="edgeStyle=orthogonalEdgeStyle;rounded=0;orthogonalLoop=1;jettySize=auto;html=1;entryX=0;entryY=0.5;entryDx=0;entryDy=0;dashed=1;endArrow=none;endFill=0;strokeWidth=3;" edge="1" parent="1" source="b4hqpMGxGXCr9Qu-z9TG-6" target="b4hqpMGxGXCr9Qu-z9TG-15">
          <mxGeometry relative="1" as="geometry" />
        </mxCell>
        <mxCell id="b4hqpMGxGXCr9Qu-z9TG-13" value="Params Transscale" style="swimlane;fontStyle=0;childLayout=stackLayout;horizontal=1;startSize=30;horizontalStack=0;resizeParent=1;resizeParentMax=0;resizeLast=0;collapsible=1;marginBottom=0;whiteSpace=wrap;html=1;" vertex="1" parent="1">
          <mxGeometry x="750" y="60" width="290" height="130" as="geometry" />
        </mxCell>
        <mxCell id="b4hqpMGxGXCr9Qu-z9TG-14" value="&lt;b&gt;MAX_PARALLELISM&lt;/b&gt;: &lt;i&gt;len(consumer nodes)&lt;/i&gt;&amp;nbsp;" style="text;strokeColor=none;fillColor=none;align=left;verticalAlign=middle;spacingLeft=4;spacingRight=4;overflow=hidden;points=[[0,0.5],[1,0.5]];portConstraint=eastwest;rotatable=0;whiteSpace=wrap;html=1;" vertex="1" parent="b4hqpMGxGXCr9Qu-z9TG-13">
          <mxGeometry y="30" width="290" height="20" as="geometry" />
        </mxCell>
        <mxCell id="b4hqpMGxGXCr9Qu-z9TG-15" value="&lt;b&gt;MONITORING_WARMUP_s&lt;/b&gt;:&amp;nbsp;&lt;i&gt;140&lt;/i&gt;" style="text;strokeColor=none;fillColor=none;align=left;verticalAlign=middle;spacingLeft=4;spacingRight=4;overflow=hidden;points=[[0,0.5],[1,0.5]];portConstraint=eastwest;rotatable=0;whiteSpace=wrap;html=1;" vertex="1" parent="b4hqpMGxGXCr9Qu-z9TG-13">
          <mxGeometry y="50" width="290" height="20" as="geometry" />
        </mxCell>
        <mxCell id="b4hqpMGxGXCr9Qu-z9TG-16" value="&lt;b&gt;MONITORING_INTERVAL_s&lt;/b&gt;: &lt;i&gt;60&lt;/i&gt;" style="text;strokeColor=none;fillColor=none;align=left;verticalAlign=middle;spacingLeft=4;spacingRight=4;overflow=hidden;points=[[0,0.5],[1,0.5]];portConstraint=eastwest;rotatable=0;whiteSpace=wrap;html=1;" vertex="1" parent="b4hqpMGxGXCr9Qu-z9TG-13">
          <mxGeometry y="70" width="290" height="20" as="geometry" />
        </mxCell>
        <mxCell id="b4hqpMGxGXCr9Qu-z9TG-24" value="&lt;b&gt;OUTPUT_CROP_DATA_s&lt;/b&gt;: &lt;i&gt;120&lt;/i&gt;" style="text;strokeColor=none;fillColor=none;align=left;verticalAlign=middle;spacingLeft=4;spacingRight=4;overflow=hidden;points=[[0,0.5],[1,0.5]];portConstraint=eastwest;rotatable=0;whiteSpace=wrap;html=1;" vertex="1" parent="b4hqpMGxGXCr9Qu-z9TG-13">
          <mxGeometry y="90" width="290" height="20" as="geometry" />
        </mxCell>
        <mxCell id="b4hqpMGxGXCr9Qu-z9TG-17" value="&lt;b&gt;THRESHOLD&lt;/b&gt;: &lt;i&gt;20&lt;br&gt;&lt;/i&gt;" style="text;strokeColor=none;fillColor=none;align=left;verticalAlign=middle;spacingLeft=4;spacingRight=4;overflow=hidden;points=[[0,0.5],[1,0.5]];portConstraint=eastwest;rotatable=0;whiteSpace=wrap;html=1;" vertex="1" parent="b4hqpMGxGXCr9Qu-z9TG-13">
          <mxGeometry y="110" width="290" height="20" as="geometry" />
        </mxCell>
        <mxCell id="b4hqpMGxGXCr9Qu-z9TG-21" style="edgeStyle=orthogonalEdgeStyle;rounded=0;orthogonalLoop=1;jettySize=auto;html=1;curved=1;dashed=1;dashPattern=1 1;" edge="1" parent="1" source="b4hqpMGxGXCr9Qu-z9TG-20" target="imQ8d0ZVWBdC2YYxe9G6-13">
          <mxGeometry relative="1" as="geometry" />
        </mxCell>
        <mxCell id="b4hqpMGxGXCr9Qu-z9TG-22" style="edgeStyle=orthogonalEdgeStyle;rounded=0;orthogonalLoop=1;jettySize=auto;html=1;entryX=0.5;entryY=1;entryDx=0;entryDy=0;endArrow=none;endFill=0;curved=1;dashed=1;dashPattern=1 1;" edge="1" parent="1" source="b4hqpMGxGXCr9Qu-z9TG-20" target="b4hqpMGxGXCr9Qu-z9TG-6">
          <mxGeometry relative="1" as="geometry" />
        </mxCell>
        <mxCell id="b4hqpMGxGXCr9Qu-z9TG-20" value="" style="shadow=0;dashed=0;html=1;strokeColor=none;fillColor=#4495D1;labelPosition=center;verticalLabelPosition=bottom;verticalAlign=top;align=center;outlineConnect=0;shape=mxgraph.veeam.magnifying_glass;pointerEvents=1;" vertex="1" parent="1">
          <mxGeometry x="568.38" y="190" width="30" height="30" as="geometry" />
        </mxCell>
      </root>
    </mxGraphModel>
  </diagram>
</mxfile>
